<mxfile host="app.diagrams.net" modified="2023-11-29T18:36:00.276Z" agent="Mozilla/5.0 (X11; Linux x86_64; rv:120.0) Gecko/20100101 Firefox/120.0" etag="wEe-Rw3-AAVkysSLaiYJ" version="22.1.4" type="device">
  <diagram id="R2lEEEUBdFMjLlhIrx00" name="Page-1">
    <mxGraphModel dx="2049" dy="1084" grid="1" gridSize="10" guides="1" tooltips="1" connect="1" arrows="1" fold="1" page="1" pageScale="1" pageWidth="850" pageHeight="1100" math="0" shadow="0" extFonts="Permanent Marker^https://fonts.googleapis.com/css?family=Permanent+Marker">
      <root>
        <mxCell id="0" />
        <mxCell id="1" parent="0" />
        <mxCell id="fw9de2Oe6ijdv10c47Y7-1" value="Master" style="swimlane;whiteSpace=wrap;html=1;" vertex="1" parent="1">
          <mxGeometry x="60" y="50" width="200" height="220" as="geometry" />
        </mxCell>
        <mxCell id="fw9de2Oe6ijdv10c47Y7-2" value="&lt;div&gt;Init processi&lt;/div&gt;" style="text;html=1;align=left;verticalAlign=middle;resizable=0;points=[];autosize=1;strokeColor=none;fillColor=none;" vertex="1" parent="fw9de2Oe6ijdv10c47Y7-1">
          <mxGeometry x="15" y="30" width="90" height="30" as="geometry" />
        </mxCell>
        <mxCell id="fw9de2Oe6ijdv10c47Y7-3" value="&lt;div&gt;Print status&lt;/div&gt;" style="text;html=1;strokeColor=none;fillColor=none;align=left;verticalAlign=middle;whiteSpace=wrap;rounded=0;" vertex="1" parent="fw9de2Oe6ijdv10c47Y7-1">
          <mxGeometry x="15" y="60" width="85" height="15" as="geometry" />
        </mxCell>
        <mxCell id="fw9de2Oe6ijdv10c47Y7-4" value="&lt;div&gt;Preleva energia&lt;/div&gt;" style="text;html=1;strokeColor=default;fillColor=none;align=left;verticalAlign=middle;whiteSpace=wrap;rounded=0;" vertex="1" parent="fw9de2Oe6ijdv10c47Y7-1">
          <mxGeometry x="15" y="85" width="95" height="20" as="geometry" />
        </mxCell>
        <mxCell id="fw9de2Oe6ijdv10c47Y7-6" value="create atomi" style="text;html=1;strokeColor=default;fillColor=none;align=left;verticalAlign=middle;whiteSpace=wrap;rounded=0;" vertex="1" parent="fw9de2Oe6ijdv10c47Y7-1">
          <mxGeometry x="15" y="120" width="75" height="20" as="geometry" />
        </mxCell>
        <mxCell id="fw9de2Oe6ijdv10c47Y7-7" value="create Attivatore" style="text;html=1;strokeColor=none;fillColor=none;align=left;verticalAlign=middle;whiteSpace=wrap;rounded=0;" vertex="1" parent="fw9de2Oe6ijdv10c47Y7-1">
          <mxGeometry x="15" y="140" width="95" height="20" as="geometry" />
        </mxCell>
        <mxCell id="fw9de2Oe6ijdv10c47Y7-8" value="create Alimentatore" style="text;html=1;strokeColor=none;fillColor=none;align=left;verticalAlign=middle;whiteSpace=wrap;rounded=0;" vertex="1" parent="fw9de2Oe6ijdv10c47Y7-1">
          <mxGeometry x="15" y="160" width="115" height="20" as="geometry" />
        </mxCell>
        <mxCell id="fw9de2Oe6ijdv10c47Y7-9" value="start simulation" style="text;html=1;strokeColor=default;fillColor=none;align=left;verticalAlign=middle;whiteSpace=wrap;rounded=0;" vertex="1" parent="fw9de2Oe6ijdv10c47Y7-1">
          <mxGeometry x="15" y="180" width="85" height="20" as="geometry" />
        </mxCell>
        <mxCell id="fw9de2Oe6ijdv10c47Y7-5" value="" style="endArrow=none;html=1;rounded=0;" edge="1" parent="1">
          <mxGeometry width="50" height="50" relative="1" as="geometry">
            <mxPoint x="60" y="160" as="sourcePoint" />
            <mxPoint x="260" y="160" as="targetPoint" />
          </mxGeometry>
        </mxCell>
        <mxCell id="fw9de2Oe6ijdv10c47Y7-10" value="&lt;div&gt;Variabili&lt;/div&gt;" style="swimlane;horizontal=0;whiteSpace=wrap;html=1;" vertex="1" parent="1">
          <mxGeometry x="630" y="20" width="200" height="200" as="geometry" />
        </mxCell>
        <mxCell id="fw9de2Oe6ijdv10c47Y7-11" value="ENERGY_DEMAND" style="text;html=1;strokeColor=none;fillColor=none;align=left;verticalAlign=middle;whiteSpace=wrap;rounded=0;" vertex="1" parent="fw9de2Oe6ijdv10c47Y7-10">
          <mxGeometry x="30" y="10" width="60" height="30" as="geometry" />
        </mxCell>
        <mxCell id="fw9de2Oe6ijdv10c47Y7-12" value="&lt;div&gt;N_ATOM_INIT&lt;/div&gt;" style="text;html=1;strokeColor=none;fillColor=none;align=left;verticalAlign=middle;whiteSpace=wrap;rounded=0;" vertex="1" parent="fw9de2Oe6ijdv10c47Y7-10">
          <mxGeometry x="30" y="30" width="60" height="30" as="geometry" />
        </mxCell>
        <mxCell id="fw9de2Oe6ijdv10c47Y7-24" value="N_ATOMICO_MAX" style="text;html=1;align=left;verticalAlign=middle;resizable=0;points=[];autosize=1;strokeColor=none;fillColor=none;" vertex="1" parent="fw9de2Oe6ijdv10c47Y7-10">
          <mxGeometry x="30" y="50" width="130" height="30" as="geometry" />
        </mxCell>
        <mxCell id="fw9de2Oe6ijdv10c47Y7-38" value="MIN_N_ATOMICO" style="text;html=1;align=left;verticalAlign=middle;resizable=0;points=[];autosize=1;strokeColor=none;fillColor=none;" vertex="1" parent="fw9de2Oe6ijdv10c47Y7-10">
          <mxGeometry x="30" y="70" width="120" height="30" as="geometry" />
        </mxCell>
        <mxCell id="fw9de2Oe6ijdv10c47Y7-47" value="STEP" style="text;html=1;align=left;verticalAlign=middle;resizable=0;points=[];autosize=1;strokeColor=none;fillColor=none;" vertex="1" parent="fw9de2Oe6ijdv10c47Y7-10">
          <mxGeometry x="30" y="90" width="50" height="30" as="geometry" />
        </mxCell>
        <mxCell id="fw9de2Oe6ijdv10c47Y7-48" value="N_NUOVI_ATOMI" style="text;html=1;align=left;verticalAlign=middle;resizable=0;points=[];autosize=1;strokeColor=none;fillColor=none;" vertex="1" parent="fw9de2Oe6ijdv10c47Y7-10">
          <mxGeometry x="30" y="110" width="120" height="30" as="geometry" />
        </mxCell>
        <mxCell id="fw9de2Oe6ijdv10c47Y7-14" style="edgeStyle=entityRelationEdgeStyle;rounded=1;orthogonalLoop=1;jettySize=auto;html=1;exitX=1;exitY=0.5;exitDx=0;exitDy=0;entryX=0;entryY=0.5;entryDx=0;entryDy=0;fillColor=#dae8fc;strokeColor=#6c8ebf;" edge="1" parent="1" source="fw9de2Oe6ijdv10c47Y7-4" target="fw9de2Oe6ijdv10c47Y7-11">
          <mxGeometry relative="1" as="geometry" />
        </mxCell>
        <mxCell id="fw9de2Oe6ijdv10c47Y7-15" style="edgeStyle=entityRelationEdgeStyle;rounded=0;orthogonalLoop=1;jettySize=auto;html=1;exitX=1;exitY=0.5;exitDx=0;exitDy=0;entryX=0;entryY=0.5;entryDx=0;entryDy=0;fillColor=#dae8fc;strokeColor=#6c8ebf;" edge="1" parent="1" source="fw9de2Oe6ijdv10c47Y7-6" target="fw9de2Oe6ijdv10c47Y7-12">
          <mxGeometry relative="1" as="geometry" />
        </mxCell>
        <mxCell id="fw9de2Oe6ijdv10c47Y7-18" value="Solo dopo che tutti i processi sono stati inizializzati con successo" style="rounded=0;whiteSpace=wrap;html=1;" vertex="1" parent="1">
          <mxGeometry x="650" y="280" width="180" height="70" as="geometry" />
        </mxCell>
        <mxCell id="fw9de2Oe6ijdv10c47Y7-19" style="edgeStyle=orthogonalEdgeStyle;rounded=0;orthogonalLoop=1;jettySize=auto;html=1;exitX=1;exitY=0.5;exitDx=0;exitDy=0;entryX=0.75;entryY=0;entryDx=0;entryDy=0;fillColor=#d5e8d4;strokeColor=#82b366;" edge="1" parent="1" source="fw9de2Oe6ijdv10c47Y7-9" target="fw9de2Oe6ijdv10c47Y7-18">
          <mxGeometry relative="1" as="geometry" />
        </mxCell>
        <mxCell id="fw9de2Oe6ijdv10c47Y7-21" value="&lt;div align=&quot;left&quot;&gt;LEGENDA:&lt;/div&gt;&lt;div align=&quot;left&quot;&gt;&lt;br&gt;&lt;/div&gt;&lt;div align=&quot;left&quot;&gt;Freccia &lt;font color=&quot;#66b2ff&quot;&gt;blu&lt;/font&gt;: Usa la varibile puntata&lt;/div&gt;&lt;div align=&quot;left&quot;&gt;Freccia &lt;font color=&quot;#66ff66&quot;&gt;verde&lt;/font&gt;: Nota&lt;/div&gt;&lt;div align=&quot;left&quot;&gt;Freccia &lt;font color=&quot;#ff9999&quot;&gt;rossa&lt;/font&gt;: Segnale&lt;/div&gt;&lt;div align=&quot;left&quot;&gt;Freccia &lt;font color=&quot;#ff66ff&quot;&gt;viola&lt;/font&gt;: Chiama&lt;/div&gt;" style="rounded=0;whiteSpace=wrap;html=1;" vertex="1" parent="1">
          <mxGeometry x="530" y="950" width="320" height="150" as="geometry" />
        </mxCell>
        <mxCell id="fw9de2Oe6ijdv10c47Y7-22" value="Atomo" style="swimlane;whiteSpace=wrap;html=1;" vertex="1" parent="1">
          <mxGeometry x="340" y="380" width="200" height="200" as="geometry" />
        </mxCell>
        <mxCell id="fw9de2Oe6ijdv10c47Y7-29" value="N.Atomico tra 1 e Var" style="text;html=1;strokeColor=none;fillColor=none;align=center;verticalAlign=middle;whiteSpace=wrap;rounded=0;" vertex="1" parent="fw9de2Oe6ijdv10c47Y7-22">
          <mxGeometry y="30" width="200" height="20" as="geometry" />
        </mxCell>
        <mxCell id="fw9de2Oe6ijdv10c47Y7-31" value="Forka per creare nuovo atomo" style="text;html=1;align=center;verticalAlign=middle;resizable=0;points=[];autosize=1;strokeColor=default;fillColor=none;" vertex="1" parent="fw9de2Oe6ijdv10c47Y7-22">
          <mxGeometry y="60" width="180" height="30" as="geometry" />
        </mxCell>
        <mxCell id="fw9de2Oe6ijdv10c47Y7-39" value="&lt;div&gt;N Atomico &amp;lt; Var -&amp;gt; elimina&amp;nbsp;&lt;/div&gt;&lt;div&gt;e contaggia come scoria&lt;/div&gt;" style="text;html=1;align=center;verticalAlign=middle;resizable=0;points=[];autosize=1;strokeColor=default;fillColor=none;" vertex="1" parent="fw9de2Oe6ijdv10c47Y7-22">
          <mxGeometry y="93" width="170" height="40" as="geometry" />
        </mxCell>
        <mxCell id="fw9de2Oe6ijdv10c47Y7-23" value="" style="endArrow=none;html=1;rounded=0;exitX=0;exitY=0.25;exitDx=0;exitDy=0;entryX=1;entryY=0.25;entryDx=0;entryDy=0;" edge="1" parent="1" source="fw9de2Oe6ijdv10c47Y7-1" target="fw9de2Oe6ijdv10c47Y7-1">
          <mxGeometry width="50" height="50" relative="1" as="geometry">
            <mxPoint x="400" y="480" as="sourcePoint" />
            <mxPoint x="450" y="430" as="targetPoint" />
          </mxGeometry>
        </mxCell>
        <mxCell id="fw9de2Oe6ijdv10c47Y7-25" value="Alimentatore" style="swimlane;whiteSpace=wrap;html=1;" vertex="1" parent="1">
          <mxGeometry x="30" y="550" width="240" height="200" as="geometry" />
        </mxCell>
        <mxCell id="fw9de2Oe6ijdv10c47Y7-46" value="Ogni STEP nSec crea N_NUOVI_ATOMI" style="text;html=1;align=center;verticalAlign=middle;resizable=0;points=[];autosize=1;strokeColor=default;fillColor=none;" vertex="1" parent="fw9de2Oe6ijdv10c47Y7-25">
          <mxGeometry y="40" width="240" height="30" as="geometry" />
        </mxCell>
        <mxCell id="fw9de2Oe6ijdv10c47Y7-26" value="Attivatore" style="swimlane;whiteSpace=wrap;html=1;" vertex="1" parent="1">
          <mxGeometry x="620" y="690" width="220" height="200" as="geometry" />
        </mxCell>
        <mxCell id="fw9de2Oe6ijdv10c47Y7-43" value="Non crea altri atomi" style="text;html=1;align=left;verticalAlign=middle;resizable=0;points=[];autosize=1;strokeColor=default;fillColor=none;" vertex="1" parent="fw9de2Oe6ijdv10c47Y7-26">
          <mxGeometry x="5" y="40" width="130" height="30" as="geometry" />
        </mxCell>
        <mxCell id="fw9de2Oe6ijdv10c47Y7-45" value="Decide quali atomi devono scindersi" style="text;html=1;align=left;verticalAlign=middle;resizable=0;points=[];autosize=1;strokeColor=default;fillColor=none;" vertex="1" parent="fw9de2Oe6ijdv10c47Y7-26">
          <mxGeometry x="5" y="70" width="210" height="30" as="geometry" />
        </mxCell>
        <mxCell id="fw9de2Oe6ijdv10c47Y7-27" value="Inibitore" style="swimlane;whiteSpace=wrap;html=1;" vertex="1" parent="1">
          <mxGeometry x="190" y="840" width="310" height="200" as="geometry" />
        </mxCell>
        <mxCell id="fw9de2Oe6ijdv10c47Y7-53" value="Riceve segnale di imminente problema da Master" style="text;html=1;align=center;verticalAlign=middle;resizable=0;points=[];autosize=1;strokeColor=default;fillColor=none;" vertex="1" parent="fw9de2Oe6ijdv10c47Y7-27">
          <mxGeometry y="40" width="290" height="30" as="geometry" />
        </mxCell>
        <mxCell id="fw9de2Oe6ijdv10c47Y7-54" value="Invia segnale a attivatore (stop)" style="text;html=1;align=center;verticalAlign=middle;resizable=0;points=[];autosize=1;strokeColor=default;fillColor=none;" vertex="1" parent="fw9de2Oe6ijdv10c47Y7-27">
          <mxGeometry y="70" width="190" height="30" as="geometry" />
        </mxCell>
        <mxCell id="fw9de2Oe6ijdv10c47Y7-57" value="Interfaccia utente per poter attivare e disattivare l&#39;inibitore" style="text;html=1;align=center;verticalAlign=middle;resizable=0;points=[];autosize=1;strokeColor=none;fillColor=none;" vertex="1" parent="fw9de2Oe6ijdv10c47Y7-27">
          <mxGeometry x="-10" y="118" width="330" height="30" as="geometry" />
        </mxCell>
        <mxCell id="fw9de2Oe6ijdv10c47Y7-28" value="" style="endArrow=none;html=1;rounded=0;entryX=1;entryY=0.25;entryDx=0;entryDy=0;exitX=0;exitY=0.25;exitDx=0;exitDy=0;" edge="1" parent="1" source="fw9de2Oe6ijdv10c47Y7-22" target="fw9de2Oe6ijdv10c47Y7-22">
          <mxGeometry width="50" height="50" relative="1" as="geometry">
            <mxPoint x="310" y="480" as="sourcePoint" />
            <mxPoint x="360" y="430" as="targetPoint" />
          </mxGeometry>
        </mxCell>
        <mxCell id="fw9de2Oe6ijdv10c47Y7-30" style="edgeStyle=entityRelationEdgeStyle;rounded=0;orthogonalLoop=1;jettySize=auto;html=1;exitX=1;exitY=0.5;exitDx=0;exitDy=0;fillColor=#dae8fc;strokeColor=#6c8ebf;" edge="1" parent="1" source="fw9de2Oe6ijdv10c47Y7-29" target="fw9de2Oe6ijdv10c47Y7-24">
          <mxGeometry relative="1" as="geometry" />
        </mxCell>
        <mxCell id="fw9de2Oe6ijdv10c47Y7-32" style="edgeStyle=orthogonalEdgeStyle;rounded=0;orthogonalLoop=1;jettySize=auto;html=1;exitX=0.006;exitY=0.567;exitDx=0;exitDy=0;entryX=1;entryY=0.456;entryDx=0;entryDy=0;entryPerimeter=0;fillColor=#e1d5e7;strokeColor=#9673a6;exitPerimeter=0;" edge="1" parent="1" source="fw9de2Oe6ijdv10c47Y7-45" target="fw9de2Oe6ijdv10c47Y7-31">
          <mxGeometry relative="1" as="geometry" />
        </mxCell>
        <mxCell id="fw9de2Oe6ijdv10c47Y7-33" value="&lt;div&gt;Attivatore concede i &quot;permessi&quot;&lt;/div&gt;&lt;div&gt;&amp;nbsp;per forkare&lt;/div&gt;" style="edgeLabel;html=1;align=center;verticalAlign=middle;resizable=0;points=[];" vertex="1" connectable="0" parent="fw9de2Oe6ijdv10c47Y7-32">
          <mxGeometry x="0.4953" y="1" relative="1" as="geometry">
            <mxPoint x="73" as="offset" />
          </mxGeometry>
        </mxCell>
        <mxCell id="fw9de2Oe6ijdv10c47Y7-34" value="Questo crea nuova energia" style="text;html=1;align=center;verticalAlign=middle;resizable=0;points=[];autosize=1;strokeColor=default;fillColor=none;" vertex="1" parent="1">
          <mxGeometry x="100" y="350" width="170" height="30" as="geometry" />
        </mxCell>
        <mxCell id="fw9de2Oe6ijdv10c47Y7-36" style="edgeStyle=entityRelationEdgeStyle;rounded=0;orthogonalLoop=1;jettySize=auto;html=1;entryX=1.007;entryY=0.467;entryDx=0;entryDy=0;entryPerimeter=0;fillColor=#d5e8d4;strokeColor=#82b366;" edge="1" parent="1" source="fw9de2Oe6ijdv10c47Y7-31" target="fw9de2Oe6ijdv10c47Y7-34">
          <mxGeometry relative="1" as="geometry" />
        </mxCell>
        <mxCell id="fw9de2Oe6ijdv10c47Y7-40" style="edgeStyle=entityRelationEdgeStyle;rounded=0;orthogonalLoop=1;jettySize=auto;html=1;fillColor=#dae8fc;strokeColor=#6c8ebf;" edge="1" parent="1" source="fw9de2Oe6ijdv10c47Y7-39" target="fw9de2Oe6ijdv10c47Y7-38">
          <mxGeometry relative="1" as="geometry" />
        </mxCell>
        <mxCell id="fw9de2Oe6ijdv10c47Y7-41" value="Solo se riceve l&#39;attivazione a scindere" style="text;html=1;align=center;verticalAlign=middle;resizable=0;points=[];autosize=1;strokeColor=default;fillColor=none;" vertex="1" parent="1">
          <mxGeometry x="50" y="400" width="220" height="30" as="geometry" />
        </mxCell>
        <mxCell id="fw9de2Oe6ijdv10c47Y7-42" style="edgeStyle=entityRelationEdgeStyle;rounded=0;orthogonalLoop=1;jettySize=auto;html=1;entryX=1.02;entryY=0.797;entryDx=0;entryDy=0;entryPerimeter=0;fillColor=#d5e8d4;strokeColor=#82b366;" edge="1" parent="1" source="fw9de2Oe6ijdv10c47Y7-39" target="fw9de2Oe6ijdv10c47Y7-41">
          <mxGeometry relative="1" as="geometry">
            <Array as="points">
              <mxPoint x="290" y="460" />
              <mxPoint x="290" y="460" />
              <mxPoint x="290" y="440" />
            </Array>
          </mxGeometry>
        </mxCell>
        <mxCell id="fw9de2Oe6ijdv10c47Y7-51" style="edgeStyle=orthogonalEdgeStyle;rounded=0;orthogonalLoop=1;jettySize=auto;html=1;fillColor=#dae8fc;strokeColor=#6c8ebf;" edge="1" parent="1" source="fw9de2Oe6ijdv10c47Y7-46" target="fw9de2Oe6ijdv10c47Y7-47">
          <mxGeometry relative="1" as="geometry">
            <mxPoint x="720" y="120" as="targetPoint" />
            <Array as="points">
              <mxPoint x="320" y="605" />
              <mxPoint x="320" y="190" />
              <mxPoint x="540" y="190" />
              <mxPoint x="540" y="10" />
              <mxPoint x="800" y="10" />
              <mxPoint x="800" y="120" />
              <mxPoint x="760" y="120" />
              <mxPoint x="760" y="125" />
            </Array>
          </mxGeometry>
        </mxCell>
        <mxCell id="fw9de2Oe6ijdv10c47Y7-52" style="edgeStyle=orthogonalEdgeStyle;rounded=0;orthogonalLoop=1;jettySize=auto;html=1;fillColor=#dae8fc;strokeColor=#6c8ebf;" edge="1" parent="1" source="fw9de2Oe6ijdv10c47Y7-46" target="fw9de2Oe6ijdv10c47Y7-48">
          <mxGeometry relative="1" as="geometry">
            <Array as="points">
              <mxPoint x="330" y="605" />
              <mxPoint x="330" y="210" />
              <mxPoint x="570" y="210" />
              <mxPoint x="570" y="10" />
              <mxPoint x="810" y="10" />
              <mxPoint x="810" y="145" />
            </Array>
          </mxGeometry>
        </mxCell>
        <mxCell id="fw9de2Oe6ijdv10c47Y7-55" style="edgeStyle=orthogonalEdgeStyle;rounded=0;orthogonalLoop=1;jettySize=auto;html=1;entryX=0;entryY=0.75;entryDx=0;entryDy=0;fillColor=#f8cecc;strokeColor=#b85450;" edge="1" parent="1" source="fw9de2Oe6ijdv10c47Y7-54" target="fw9de2Oe6ijdv10c47Y7-26">
          <mxGeometry relative="1" as="geometry">
            <Array as="points">
              <mxPoint x="540" y="925" />
              <mxPoint x="540" y="840" />
            </Array>
          </mxGeometry>
        </mxCell>
        <mxCell id="fw9de2Oe6ijdv10c47Y7-56" style="edgeStyle=orthogonalEdgeStyle;rounded=0;orthogonalLoop=1;jettySize=auto;html=1;exitX=0;exitY=0.75;exitDx=0;exitDy=0;entryX=-0.001;entryY=0.567;entryDx=0;entryDy=0;entryPerimeter=0;fillColor=#f8cecc;strokeColor=#b85450;" edge="1" parent="1" source="fw9de2Oe6ijdv10c47Y7-1" target="fw9de2Oe6ijdv10c47Y7-53">
          <mxGeometry relative="1" as="geometry">
            <Array as="points">
              <mxPoint x="10" y="215" />
              <mxPoint x="10" y="897" />
            </Array>
          </mxGeometry>
        </mxCell>
      </root>
    </mxGraphModel>
  </diagram>
</mxfile>
